<svg xmlns="http://www.w3.org/2000/svg" viewBox="0 0 160 160" width="520" height="520" style="background:#0A0E14">
  <defs>
    <linearGradient id="spine" x1="0" y1="48" x2="0" y2="112" gradientUnits="userSpaceOnUse">
      <stop offset="0" stop-color="#00E5FF"/><stop offset="1" stop-color="#39FF14"/>
    </linearGradient>
  </defs>
  <g stroke-linecap="round" stroke-linejoin="round" fill="none">
    <path d="M42 48 L42 112" stroke="url(#spine)" stroke-width="10"/>
    <path d="M78 80 L118 48" stroke="#00E5FF" stroke-width="10"/>
    <path d="M78 80 L118 112" stroke="#00E5FF" stroke-width="10"/>
    <path d="M28 58 L13 80 L28 102" stroke="#00E5FF" stroke-width="5.5"/>
    <path d="M132 58 L147 80 L132 102" stroke="#39FF14" stroke-width="5.5"/>
  </g>
  <rect x="70" y="70" width="20" height="20" rx="4.5" fill="#00E5FF" opacity=".16" stroke="#00E5FF" stroke-width="1.5"/>
  <g fill="#00E5FF" opacity=".72">
    <circle cx="65.33" cy="65.33" r="2.6"/><circle cx="94.67" cy="65.33" r="2.6"/>
    <circle cx="65.33" cy="94.67" r="2.6"/><circle cx="94.67" cy="94.67" r="2.6"/>
    <circle cx="36" cy="36" r="2.6"/><circle cx="65.33" cy="36" r="2.6"/>
    <circle cx="94.67" cy="36" r="2.6"/><circle cx="124" cy="36" r="2.6"/>
    <circle cx="36" cy="65.33" r="2.6"/><circle cx="124" cy="65.33" r="2.6"/>
    <circle cx="36" cy="94.67" r="2.6"/><circle cx="124" cy="94.67" r="2.6"/>
    <circle cx="36" cy="124" r="2.6"/><circle cx="65.33" cy="124" r="2.6"/>
    <circle cx="94.67" cy="124" r="2.6"/><circle cx="124" cy="124" r="2.6"/>
  </g>
  <g stroke="#00E5FF" stroke-width="1.6" opacity=".85" fill="none">
    <rect x="23" y="23" width="14" height="14" rx="4"/>
    <rect x="123" y="23" width="14" height="14" rx="4"/>
    <rect x="23" y="123" width="14" height="14" rx="4"/>
    <rect x="123" y="123" width="14" height="14" rx="4"/>
  </g>
  <g fill="#8892A4" opacity=".6">
    <circle cx="30" cy="30" r="3.4"/><circle cx="130" cy="30" r="3.4"/>
    <circle cx="30" cy="130" r="3.4"/><circle cx="130" cy="130" r="3.4"/>
  </g>
</svg>
